<svg version="1.1" id="Layer_1" xmlns="http://www.w3.org/2000/svg" xmlns:xlink="http://www.w3.org/1999/xlink" x="0px" y="0px"
	 width="100%" viewBox="0 0 640 639" enable-background="new 0 0 640 639" xml:space="preserve">
<path fill="#272122" opacity="1.000000" stroke="none" 
	d="
M279.000000,0.999999 
	C306.687561,1.000000 334.375122,1.000000 362.609314,1.378347 
	C365.784515,2.490864 368.369476,3.559324 371.048187,3.908372 
	C403.993896,8.201360 435.012634,18.690245 464.714264,33.231945 
	C484.146790,42.745979 502.285400,54.341637 519.465698,67.578857 
	C541.995117,84.937584 561.427429,105.277000 578.704895,127.682037 
	C593.458740,146.814529 605.444519,167.754440 615.236938,189.806107 
	C626.092468,214.251953 634.042786,239.668625 638.122803,266.209167 
	C638.635071,269.541473 640.019653,272.739655 641.000000,276.000000 
	C641.000000,307.020905 641.000000,338.041779 640.623291,369.608337 
	C638.198608,377.907318 635.812622,385.589691 634.167603,393.427582 
	C629.681152,414.802338 622.288330,435.102753 613.272827,454.967377 
	C603.749817,475.950287 592.118652,495.667664 578.217224,513.891724 
	C563.813965,532.773621 547.645996,550.104126 529.287598,565.430054 
	C508.888367,582.459778 486.995636,597.130310 463.158630,608.628784 
	C433.723389,622.827698 402.889404,633.000122 370.284943,637.217041 
	C367.778564,637.541199 365.424744,639.044678 363.000000,640.000000 
	C335.645782,640.000000 308.291534,640.000000 280.387665,639.618286 
	C279.167511,638.835754 278.540405,638.203979 277.820007,638.068481 
	C265.797668,635.806396 253.619247,634.194275 241.759567,631.281250 
	C207.309235,622.819580 175.287628,608.732666 145.446930,589.396484 
	C123.912743,575.442688 104.497368,559.132324 86.928017,540.556580 
	C65.646172,518.055725 47.165848,493.478546 34.221809,465.207733 
	C26.873619,449.158661 19.808115,432.875031 14.207968,416.163361 
	C9.552570,402.270935 7.269596,387.587921 3.823978,373.282013 
	C3.143902,370.458405 1.954509,367.757507 1.000000,365.000000 
	C1.000000,336.312439 1.000000,307.624878 1.384817,278.384705 
	C2.143620,277.323761 2.754148,276.858704 2.856385,276.300568 
	C4.609990,266.726898 5.721645,256.992706 8.140040,247.593735 
	C11.844518,233.196487 15.633621,218.726624 20.836163,204.830200 
	C29.800682,180.885208 41.870201,158.451248 56.668228,137.495728 
	C70.173592,118.370735 84.890678,100.293648 102.650887,85.008560 
	C114.808861,74.544952 127.158745,64.079605 140.538330,55.318573 
	C156.303787,44.995247 172.754562,35.388000 189.842224,27.491455 
	C215.802551,15.494669 243.176849,7.405234 271.720795,3.780603 
	C274.224518,3.462669 276.577179,1.955040 279.000000,0.999999 
M92.078331,111.021675 
	C92.078331,111.021675 92.159065,111.053688 91.440498,111.194824 
	C91.290161,111.807137 91.139824,112.419456 90.974464,112.994423 
	C90.974464,112.994423 91.009781,112.977318 90.332489,112.689331 
	C89.027939,113.952736 87.617096,115.124275 86.434258,116.492867 
	C49.660431,159.041336 25.741852,207.884644 15.493004,263.190918 
	C12.685692,278.340118 11.455249,293.781555 9.401218,309.872009 
	C11.802391,309.209503 12.905574,308.991760 13.946062,308.605225 
	C34.711388,300.891113 55.378250,292.901184 76.245789,285.474976 
	C144.629776,261.138947 214.812866,245.729874 287.621307,243.873093 
	C291.965851,243.762299 293.160065,241.342758 294.629364,238.234894 
	C314.484131,196.237946 357.900848,171.252502 404.059937,175.189453 
	C450.160370,179.121399 489.015076,211.681366 501.004944,256.670898 
	C501.945831,260.201447 503.736328,261.346558 506.995697,262.077118 
	C515.765625,264.042847 524.745361,265.603210 533.112305,268.738068 
	C560.385315,278.956573 587.430115,289.785370 614.542969,300.429596 
	C620.072998,302.600677 625.517090,304.990662 632.100342,307.738678 
	C631.395386,299.747681 630.941589,292.841766 630.156189,285.973816 
	C622.259949,216.929001 594.824341,156.598206 546.634583,106.692039 
	C477.668396,35.269501 392.873352,3.374919 293.823425,10.944733 
	C236.121292,15.354572 184.013123,35.670799 137.282440,69.768082 
	C136.035202,70.678131 135.117264,72.039505 134.003342,73.107101 
	C134.003342,73.107101 134.083969,73.059746 133.439102,72.978363 
	C133.289917,73.332642 133.140717,73.686920 132.992767,73.989197 
	C132.992767,73.989197 133.042648,74.003960 132.394897,73.762825 
	C131.939850,74.215202 131.484787,74.667580 131.013901,75.048576 
	C131.013901,75.048576 131.086960,75.045853 130.395660,75.149323 
	C130.177231,75.536247 129.958786,75.923164 129.225098,76.647560 
	C115.514206,85.816765 103.486931,96.794708 92.741379,109.914146 
	C92.512306,110.311134 92.283234,110.708115 92.078331,111.021675 
M74.820351,358.986694 
	C76.135078,358.844604 77.505493,358.894409 78.756142,358.531464 
	C96.472260,353.390930 113.957191,347.225616 131.926376,343.238708 
	C158.837433,337.267822 185.942673,331.777496 213.232010,328.019379 
	C239.520798,324.399078 266.150513,323.264679 292.623749,320.961243 
	C296.029968,320.664886 297.696442,322.047516 298.912964,325.167694 
	C303.694489,337.431580 310.842407,348.316162 320.172211,357.499786 
	C343.521454,380.483154 371.463409,391.381378 404.424927,388.138916 
	C438.156006,384.820740 463.887573,368.364990 482.288971,340.204193 
	C484.225708,337.240234 486.192841,336.656677 489.304199,337.287720 
	C528.059204,345.148041 565.782715,356.534119 602.799011,370.357086 
	C611.294189,373.529419 619.809326,376.648407 628.626343,379.906921 
	C629.192139,377.734680 629.633972,376.151184 630.016296,374.553436 
	C634.160278,357.234802 634.289795,339.625702 634.176758,321.951477 
	C634.144348,316.867065 632.214233,314.634521 627.725403,312.930511 
	C618.237915,309.328918 608.889282,305.335785 599.605408,301.228333 
	C568.049438,287.266998 536.201599,274.164612 502.047852,267.852722 
	C497.816101,267.070679 496.073608,265.015869 495.158478,260.923523 
	C489.939148,237.583527 477.406036,218.674545 458.814209,203.953568 
	C437.887726,187.383957 413.943939,180.036591 387.155487,181.835129 
	C374.676666,182.672928 362.767578,185.546738 351.553497,190.805969 
	C327.219727,202.218140 309.439117,220.190887 298.901733,245.082596 
	C297.699554,247.922363 296.520294,249.911240 292.587372,250.160614 
	C272.032471,251.463928 251.478363,252.944214 230.980164,254.940063 
	C196.113831,258.334900 161.900864,265.703857 128.438812,275.641663 
	C96.246567,285.202301 64.747269,297.096222 32.222778,308.087372 
	C25.877956,310.546112 19.426739,312.773071 13.253988,315.606689 
	C11.432845,316.442657 9.234697,318.960052 9.183689,320.762756 
	C8.667330,339.011353 8.774900,357.209534 13.351447,375.140900 
	C14.612559,380.082092 16.316519,380.324982 20.388462,378.774231 
	C31.560099,374.519775 42.847878,370.571075 54.073391,366.456879 
	C60.731525,364.016602 67.358833,361.492249 74.820351,358.986694 
M585.462463,481.509064 
	C604.419434,453.004883 616.122131,421.490631 624.134277,388.435791 
	C624.820435,385.605042 623.363281,384.755341 621.046570,383.850983 
	C579.129700,367.488373 536.448669,353.640869 492.379730,344.266296 
	C488.952362,343.537201 487.099945,344.428680 485.034332,347.343872 
	C465.245270,375.271942 438.298462,391.389709 404.174652,394.666321 
	C358.421570,399.059570 315.786896,374.329285 295.026276,331.677246 
	C293.319122,328.169861 291.570953,326.978638 287.583374,327.184143 
	C251.831818,329.026367 216.213913,332.217560 181.069626,339.119446 
	C159.225143,343.409363 137.623398,348.935486 115.124741,353.862762 
	C81.815720,362.719849 49.186047,373.597992 17.028511,386.287109 
	C17.321344,387.898865 17.463060,389.037292 17.738247,390.142487 
	C39.476498,477.442474 89.295471,543.921631 166.987717,588.965820 
	C216.616318,617.739258 270.552032,631.312134 328.059326,629.281982 
	C342.808014,628.761292 357.693481,627.977905 372.202240,625.487000 
	C451.183685,611.926941 515.582031,573.288391 565.603455,510.818817 
	C572.816284,501.811035 578.573181,491.637451 585.462463,481.509064 
z"/>
<path fill="#000000" opacity="1.000000" stroke="none" 
	d="
M1.000000,365.468658 
	C1.954509,367.757507 3.143902,370.458405 3.823978,373.282013 
	C7.269596,387.587921 9.552570,402.270935 14.207968,416.163361 
	C19.808115,432.875031 26.873619,449.158661 34.221809,465.207733 
	C47.165848,493.478546 65.646172,518.055725 86.928017,540.556580 
	C104.497368,559.132324 123.912743,575.442688 145.446930,589.396484 
	C175.287628,608.732666 207.309235,622.819580 241.759567,631.281250 
	C253.619247,634.194275 265.797668,635.806396 277.820007,638.068481 
	C278.540405,638.203979 279.167511,638.835754 279.919006,639.618286 
	C187.073471,640.000000 94.146942,640.000000 1.000000,640.000000 
	C1.000000,548.645874 1.000000,457.291595 1.000000,365.468658 
z"/>
<path fill="#000000" opacity="1.000000" stroke="none" 
	d="
M278.531342,0.999999 
	C276.577179,1.955040 274.224518,3.462669 271.720795,3.780603 
	C243.176849,7.405234 215.802551,15.494669 189.842224,27.491455 
	C172.754562,35.388000 156.303787,44.995247 140.538330,55.318573 
	C127.158745,64.079605 114.808861,74.544952 102.650887,85.008560 
	C84.890678,100.293648 70.173592,118.370735 56.668228,137.495728 
	C41.870201,158.451248 29.800682,180.885208 20.836163,204.830200 
	C15.633621,218.726624 11.844518,233.196487 8.140040,247.593735 
	C5.721645,256.992706 4.609990,266.726898 2.856385,276.300568 
	C2.754148,276.858704 2.143620,277.323761 1.384817,277.916077 
	C1.000000,185.739471 1.000000,93.478958 1.000000,1.000000 
	C93.354111,1.000000 185.708405,1.000000 278.531342,0.999999 
z"/>
<path fill="#000000" opacity="1.000000" stroke="none" 
	d="
M641.000000,275.531342 
	C640.019653,272.739655 638.635071,269.541473 638.122803,266.209167 
	C634.042786,239.668625 626.092468,214.251953 615.236938,189.806107 
	C605.444519,167.754440 593.458740,146.814529 578.704895,127.682037 
	C561.427429,105.277000 541.995117,84.937584 519.465698,67.578857 
	C502.285400,54.341637 484.146790,42.745979 464.714264,33.231945 
	C435.012634,18.690245 403.993896,8.201360 371.048187,3.908372 
	C368.369476,3.559324 365.784515,2.490864 363.078003,1.378347 
	C455.593292,1.000000 548.186584,1.000000 641.000000,1.000000 
	C641.000000,92.354111 641.000000,183.708389 641.000000,275.531342 
z"/>
<path fill="#000000" opacity="1.000000" stroke="none" 
	d="
M363.468689,640.000000 
	C365.424744,639.044678 367.778564,637.541199 370.284943,637.217041 
	C402.889404,633.000122 433.723389,622.827698 463.158630,608.628784 
	C486.995636,597.130310 508.888367,582.459778 529.287598,565.430054 
	C547.645996,550.104126 563.813965,532.773621 578.217224,513.891724 
	C592.118652,495.667664 603.749817,475.950287 613.272827,454.967377 
	C622.288330,435.102753 629.681152,414.802338 634.167603,393.427582 
	C635.812622,385.589691 638.198608,377.907318 640.623291,370.076996 
	C641.000000,459.928131 641.000000,549.856262 641.000000,640.000000 
	C548.645874,640.000000 456.291595,640.000000 363.468689,640.000000 
z"/>
<path fill="#EE4036" opacity="1.000000" stroke="none" 
	d="
M134.045776,73.190414 
	C135.117264,72.039505 136.035202,70.678131 137.282440,69.768082 
	C184.013123,35.670799 236.121292,15.354572 293.823425,10.944733 
	C392.873352,3.374919 477.668396,35.269501 546.634583,106.692039 
	C594.824341,156.598206 622.259949,216.929001 630.156189,285.973816 
	C630.941589,292.841766 631.395386,299.747681 632.100342,307.738678 
	C625.517090,304.990662 620.072998,302.600677 614.542969,300.429596 
	C587.430115,289.785370 560.385315,278.956573 533.112305,268.738068 
	C524.745361,265.603210 515.765625,264.042847 506.995697,262.077118 
	C503.736328,261.346558 501.945831,260.201447 501.004944,256.670898 
	C489.015076,211.681366 450.160370,179.121399 404.059937,175.189453 
	C357.900848,171.252502 314.484131,196.237946 294.629364,238.234894 
	C293.160065,241.342758 291.965851,243.762299 287.621307,243.873093 
	C214.812866,245.729874 144.629776,261.138947 76.245789,285.474976 
	C55.378250,292.901184 34.711388,300.891113 13.946062,308.605225 
	C12.905574,308.991760 11.802391,309.209503 9.401218,309.872009 
	C11.455249,293.781555 12.685692,278.340118 15.493004,263.190918 
	C25.741852,207.884644 49.660431,159.041336 86.434258,116.492867 
	C87.617096,115.124275 89.027939,113.952736 90.751396,113.191566 
	C84.586792,124.604492 79.473595,136.050034 77.454140,148.786133 
	C73.236725,175.384216 86.924805,197.710052 112.132553,204.454147 
	C117.384659,205.859299 122.955383,206.695663 128.383331,206.716125 
	C155.114944,206.816940 177.927399,196.346848 198.005814,179.483032 
	C216.319351,164.101501 229.677811,145.355484 234.508636,121.448433 
	C241.218613,88.241737 220.994217,62.435493 187.131393,60.694988 
	C170.051941,59.817131 154.166336,64.075996 138.975296,71.547722 
	C137.435349,72.305153 135.693787,72.652672 134.045776,73.190414 
z"/>
<path fill="#FFFFFF" opacity="1.000000" stroke="none" 
	d="
M115.912720,353.906799 
	C137.623398,348.935486 159.225143,343.409363 181.069626,339.119446 
	C216.213913,332.217560 251.831818,329.026367 287.583374,327.184143 
	C291.570953,326.978638 293.319122,328.169861 295.026276,331.677246 
	C315.786896,374.329285 358.421570,399.059570 404.174652,394.666321 
	C438.298462,391.389709 465.245270,375.271942 485.034332,347.343872 
	C487.099945,344.428680 488.952362,343.537201 492.379730,344.266296 
	C536.448669,353.640869 579.129700,367.488373 621.046570,383.850983 
	C623.363281,384.755341 624.820435,385.605042 624.134277,388.435791 
	C616.122131,421.490631 604.419434,453.004883 584.882690,481.724060 
	C583.117920,482.836182 581.857849,483.650269 580.759094,484.642944 
	C564.169617,499.630585 546.956360,513.822998 527.553345,525.075562 
	C474.291351,555.964050 417.046234,568.647461 355.718079,562.136108 
	C296.722534,555.872437 244.881668,532.967163 200.609375,493.654327 
	C158.087357,455.895752 129.947662,409.094055 115.912720,353.906799 
z"/>
<path fill="#A19E9E" opacity="1.000000" stroke="none" 
	d="
M115.518730,353.884766 
	C129.947662,409.094055 158.087357,455.895752 200.609375,493.654327 
	C244.881668,532.967163 296.722534,555.872437 355.718079,562.136108 
	C417.046234,568.647461 474.291351,555.964050 527.553345,525.075562 
	C546.956360,513.822998 564.169617,499.630585 580.759094,484.642944 
	C581.857849,483.650269 583.117920,482.836182 584.653442,481.971191 
	C578.573181,491.637451 572.816284,501.811035 565.603455,510.818817 
	C515.582031,573.288391 451.183685,611.926941 372.202240,625.487000 
	C357.693481,627.977905 342.808014,628.761292 328.059326,629.281982 
	C270.552032,631.312134 216.616318,617.739258 166.987717,588.965820 
	C89.295471,543.921631 39.476498,477.442474 17.738247,390.142487 
	C17.463060,389.037292 17.321344,387.898865 17.028511,386.287109 
	C49.186047,373.597992 81.815720,362.719849 115.518730,353.884766 
z"/>
<path fill="#58585A" opacity="1.000000" stroke="none" 
	d="
M32.943504,307.964966 
	C64.747269,297.096222 96.246567,285.202301 128.438812,275.641663 
	C161.900864,265.703857 196.113831,258.334900 230.980164,254.940063 
	C251.478363,252.944214 272.032471,251.463928 292.587372,250.160614 
	C296.520294,249.911240 297.699554,247.922363 298.901733,245.082596 
	C309.439117,220.190887 327.219727,202.218140 351.553497,190.805969 
	C362.767578,185.546738 374.676666,182.672928 387.155487,181.835129 
	C413.943939,180.036591 437.887726,187.383957 458.814209,203.953568 
	C477.406036,218.674545 489.939148,237.583527 495.158478,260.923523 
	C496.073608,265.015869 497.816101,267.070679 502.047852,267.852722 
	C536.201599,274.164612 568.049438,287.266998 599.605408,301.228333 
	C608.889282,305.335785 618.237915,309.328918 627.725403,312.930511 
	C632.214233,314.634521 634.144348,316.867065 634.176758,321.951477 
	C634.289795,339.625702 634.160278,357.234802 630.016296,374.553436 
	C629.633972,376.151184 629.192139,377.734680 628.626343,379.906921 
	C619.809326,376.648407 611.294189,373.529419 602.799011,370.357086 
	C565.782715,356.534119 528.059204,345.148041 489.304199,337.287720 
	C486.192841,336.656677 484.225708,337.240234 482.288971,340.204193 
	C463.887573,368.364990 438.156006,384.820740 404.424927,388.138916 
	C371.463409,391.381378 343.521454,380.483154 320.172211,357.499786 
	C310.842407,348.316162 303.694489,337.431580 298.912964,325.167694 
	C297.696442,322.047516 296.029968,320.664886 292.623749,320.961243 
	C266.150513,323.264679 239.520798,324.399078 213.232010,328.019379 
	C185.942673,331.777496 158.837433,337.267822 131.926376,343.238708 
	C113.957191,347.225616 96.472260,353.390930 78.756142,358.531464 
	C77.505493,358.894409 76.135078,358.844604 74.165222,358.739441 
	C72.114891,357.979431 70.721916,357.460510 69.324158,356.954803 
	C47.668957,349.119568 33.202038,329.639679 32.943504,307.964966 
M354.784637,346.768799 
	C371.062073,357.609619 389.282715,361.509857 408.201843,358.618195 
	C452.850464,351.793976 480.240967,311.169373 472.618103,269.034546 
	C462.504639,213.132965 396.754333,187.284943 351.468475,221.551132 
	C326.693542,240.297455 316.776886,265.814453 321.967438,296.664429 
	C325.520386,317.781311 336.942169,334.014832 354.784637,346.768799 
z"/>
<path fill="#FFFEFE" opacity="1.000000" stroke="none" 
	d="
M134.024567,73.148758 
	C135.693787,72.652672 137.435349,72.305153 138.975296,71.547722 
	C154.166336,64.075996 170.051941,59.817131 187.131393,60.694988 
	C220.994217,62.435493 241.218613,88.241737 234.508636,121.448433 
	C229.677811,145.355484 216.319351,164.101501 198.005814,179.483032 
	C177.927399,196.346848 155.114944,206.816940 128.383331,206.716125 
	C122.955383,206.695663 117.384659,205.859299 112.132553,204.454147 
	C86.924805,197.710052 73.236725,175.384216 77.454140,148.786133 
	C79.473595,136.050034 84.586792,124.604492 91.090042,113.335556 
	C91.009781,112.977318 90.974464,112.994423 91.338440,112.961128 
	C91.854630,112.303116 92.006844,111.678406 92.159065,111.053688 
	C92.159065,111.053688 92.078331,111.021675 92.429611,111.099167 
	C93.010109,110.761368 93.239319,110.346077 93.468529,109.930794 
	C103.486931,96.794708 115.514206,85.816765 129.829559,76.398125 
	C130.651672,75.781075 130.869324,75.413467 131.086960,75.045853 
	C131.086960,75.045853 131.013901,75.048576 131.353195,75.192215 
	C132.142532,74.891891 132.592590,74.447922 133.042648,74.003952 
	C133.042648,74.003960 132.992767,73.989197 133.341766,74.069130 
	C133.821838,73.785957 133.952911,73.422852 134.083969,73.059746 
	C134.083969,73.059746 134.003342,73.107101 134.024567,73.148758 
z"/>
<path fill="#363638" opacity="1.000000" stroke="none" 
	d="
M32.583145,308.026184 
	C33.202038,329.639679 47.668957,349.119568 69.324158,356.954803 
	C70.721916,357.460510 72.114891,357.979431 73.755051,358.748962 
	C67.358833,361.492249 60.731525,364.016602 54.073391,366.456879 
	C42.847878,370.571075 31.560099,374.519775 20.388462,378.774231 
	C16.316519,380.324982 14.612559,380.082092 13.351447,375.140900 
	C8.774900,357.209534 8.667330,339.011353 9.183689,320.762756 
	C9.234697,318.960052 11.432845,316.442657 13.253988,315.606689 
	C19.426739,312.773071 25.877956,310.546112 32.583145,308.026184 
z"/>
<path fill="#EE4036" opacity="1.000000" stroke="none" 
	d="
M132.718781,73.883392 
	C132.592590,74.447922 132.142532,74.891891 131.361115,75.227905 
	C131.484787,74.667580 131.939850,74.215202 132.718781,73.883392 
z"/>
<path fill="#EE4036" opacity="1.000000" stroke="none" 
	d="
M91.799782,111.124252 
	C92.006844,111.678406 91.854630,112.303116 91.345947,112.979797 
	C91.139824,112.419456 91.290161,111.807137 91.799782,111.124252 
z"/>
<path fill="#EE4036" opacity="1.000000" stroke="none" 
	d="
M133.761536,73.019058 
	C133.952911,73.422852 133.821838,73.785957 133.341156,74.095131 
	C133.140717,73.686920 133.289917,73.332642 133.761536,73.019058 
z"/>
<path fill="#EE4036" opacity="1.000000" stroke="none" 
	d="
M130.741302,75.097588 
	C130.869324,75.413467 130.651672,75.781075 130.087189,76.229385 
	C129.958786,75.923164 130.177231,75.536247 130.741302,75.097588 
z"/>
<path fill="#EE4036" opacity="1.000000" stroke="none" 
	d="
M93.104950,109.922470 
	C93.239319,110.346077 93.010109,110.761368 92.417526,111.140869 
	C92.283234,110.708115 92.512306,110.311134 93.104950,109.922470 
z"/>
<path fill="#292526" opacity="1.000000" stroke="none" 
	d="
M354.482422,346.570557 
	C336.942169,334.014832 325.520386,317.781311 321.967438,296.664429 
	C316.776886,265.814453 326.693542,240.297455 351.468475,221.551132 
	C396.754333,187.284943 462.504639,213.132965 472.618103,269.034546 
	C480.240967,311.169373 452.850464,351.793976 408.201843,358.618195 
	C389.282715,361.509857 371.062073,357.609619 354.482422,346.570557 
M461.721680,255.880142 
	C461.164276,254.670578 460.626831,253.451370 460.046570,252.252869 
	C444.364075,219.861938 406.206482,204.676895 372.500702,217.409515 
	C338.907074,230.099762 320.251068,266.441376 329.646820,300.888214 
	C340.273804,339.849060 380.853851,361.751892 419.118530,349.179962 
	C457.432556,336.591827 476.710144,294.961792 461.721680,255.880142 
z"/>
<path fill="#FAFAFA" opacity="1.000000" stroke="none" 
	d="
M461.854492,256.242432 
	C476.710144,294.961792 457.432556,336.591827 419.118530,349.179962 
	C380.853851,361.751892 340.273804,339.849060 329.646820,300.888214 
	C320.251068,266.441376 338.907074,230.099762 372.500702,217.409515 
	C406.206482,204.676895 444.364075,219.861938 460.046570,252.252869 
	C460.626831,253.451370 461.164276,254.670578 461.854492,256.242432 
M449.280518,269.332825 
	C443.260193,247.352234 425.675995,232.065857 403.201202,229.274948 
	C382.230560,226.670822 361.035309,237.504425 350.284882,256.322266 
	C339.556763,275.101044 341.317902,298.694824 354.735748,315.949341 
	C370.071259,335.669830 397.171692,342.189117 419.948212,331.636871 
	C443.110779,320.905792 454.835449,296.518188 449.280518,269.332825 
z"/>
<path fill="#353132" opacity="1.000000" stroke="none" 
	d="
M449.399017,269.732361 
	C454.835449,296.518188 443.110779,320.905792 419.948212,331.636871 
	C397.171692,342.189117 370.071259,335.669830 354.735748,315.949341 
	C341.317902,298.694824 339.556763,275.101044 350.284882,256.322266 
	C361.035309,237.504425 382.230560,226.670822 403.201202,229.274948 
	C425.675995,232.065857 443.260193,247.352234 449.399017,269.732361 
M444.714630,269.123810 
	C444.155457,267.556610 443.649780,265.967896 443.029144,264.425446 
	C432.870331,239.178268 404.222626,226.871872 378.973022,236.895737 
	C353.694397,246.931107 341.184967,275.667603 351.132111,300.851501 
	C360.703979,325.085358 387.418182,337.802002 412.182648,329.913147 
	C437.307831,321.909424 451.193298,296.463226 444.714630,269.123810 
z"/>
<path fill="#FEFEFE" opacity="1.000000" stroke="none" 
	d="
M444.814636,269.526520 
	C451.193298,296.463226 437.307831,321.909424 412.182648,329.913147 
	C387.418182,337.802002 360.703979,325.085358 351.132111,300.851501 
	C341.184967,275.667603 353.694397,246.931107 378.973022,236.895737 
	C404.222626,226.871872 432.870331,239.178268 443.029144,264.425446 
	C443.649780,265.967896 444.155457,267.556610 444.814636,269.526520 
z"/>
</svg>